<?xml version="1.0" encoding="UTF-8" standalone="no"?>
<!DOCTYPE svg PUBLIC "-//W3C//DTD SVG 1.1//EN"
 "http://www.w3.org/Graphics/SVG/1.1/DTD/svg11.dtd">
<!-- Generated by graphviz version 12.1.2 (20240928.0832)
 -->
<!-- Title: code&#45;gateway Pages: 1 -->
<svg width="720pt" height="596pt"
 viewBox="0.00 0.00 720.37 596.00" xmlns="http://www.w3.org/2000/svg" xmlns:xlink="http://www.w3.org/1999/xlink">
<g id="graph0" class="graph" transform="scale(1 1) rotate(0) translate(4 592)">
<title>code&#45;gateway</title>
<polygon fill="white" stroke="none" points="-4,4 -4,-592 716.37,-592 716.37,4 -4,4"/>
<!-- monthly_costs -->
<g id="node1" class="node">
<title>monthly_costs</title>
<polygon fill="#efefef" stroke="none" points="43.2,-509.2 43.2,-544.8 286.69,-544.8 286.69,-509.2 43.2,-509.2"/>
<polygon fill="none" stroke="black" points="43.2,-509.2 43.2,-544.8 286.69,-544.8 286.69,-509.2 43.2,-509.2"/>
<text text-anchor="start" x="50.2" y="-522.6" font-family="Arial Bold" font-size="18.00">monthly_costs</text>
<text text-anchor="start" x="155.2" y="-522.6" font-family="Arial" font-size="14.00">    </text>
<text text-anchor="start" x="186.32" y="-522.6" font-family="Arial" font-size="14.00" fill="#666666">[BASE TABLE]</text>
<polygon fill="none" stroke="black" points="43.2,-478.4 43.2,-509.2 286.69,-509.2 286.69,-478.4 43.2,-478.4"/>
<text text-anchor="start" x="50.2" y="-490.6" font-family="Arial" font-size="14.00">cost_type_id </text>
<text text-anchor="start" x="132.7" y="-490.6" font-family="Arial" font-size="14.00" fill="#666666">[bigint(20) unsigned]</text>
<polygon fill="none" stroke="black" points="43.2,-447.6 43.2,-478.4 286.69,-478.4 286.69,-447.6 43.2,-447.6"/>
<text text-anchor="start" x="50.2" y="-459.8" font-family="Arial" font-size="14.00">cost_year </text>
<text text-anchor="start" x="114.79" y="-459.8" font-family="Arial" font-size="14.00" fill="#666666">[int(10) unsigned]</text>
<polygon fill="none" stroke="black" points="43.2,-416.8 43.2,-447.6 286.69,-447.6 286.69,-416.8 43.2,-416.8"/>
<text text-anchor="start" x="50.2" y="-429" font-family="Arial" font-size="14.00">cost_month </text>
<text text-anchor="start" x="126.46" y="-429" font-family="Arial" font-size="14.00" fill="#666666">[int(10) unsigned]</text>
<polygon fill="none" stroke="black" points="43.2,-386 43.2,-416.8 286.69,-416.8 286.69,-386 43.2,-386"/>
<text text-anchor="start" x="50.2" y="-398.2" font-family="Arial" font-size="14.00">cost_yen </text>
<text text-anchor="start" x="110.12" y="-398.2" font-family="Arial" font-size="14.00" fill="#666666">[int(10) unsigned]</text>
<polygon fill="none" stroke="black" points="43.2,-355.2 43.2,-386 286.69,-386 286.69,-355.2 43.2,-355.2"/>
<text text-anchor="start" x="50.2" y="-367.4" font-family="Arial" font-size="14.00">created_at </text>
<text text-anchor="start" x="120.25" y="-367.4" font-family="Arial" font-size="14.00" fill="#666666">[datetime]</text>
<polygon fill="none" stroke="black" points="43.2,-324.4 43.2,-355.2 286.69,-355.2 286.69,-324.4 43.2,-324.4"/>
<text text-anchor="start" x="50.2" y="-336.6" font-family="Arial" font-size="14.00">updated_at </text>
<text text-anchor="start" x="124.16" y="-336.6" font-family="Arial" font-size="14.00" fill="#666666">[datetime]</text>
</g>
<!-- cost_types -->
<g id="node3" class="node">
<title>cost_types</title>
<polygon fill="#efefef" stroke="none" points="57.71,-166.4 57.71,-202 272.19,-202 272.19,-166.4 57.71,-166.4"/>
<polygon fill="none" stroke="black" points="57.71,-166.4 57.71,-202 272.19,-202 272.19,-166.4 57.71,-166.4"/>
<text text-anchor="start" x="64.71" y="-179.8" font-family="Arial Bold" font-size="18.00">cost_types</text>
<text text-anchor="start" x="140.7" y="-179.8" font-family="Arial" font-size="14.00">    </text>
<text text-anchor="start" x="171.81" y="-179.8" font-family="Arial" font-size="14.00" fill="#666666">[BASE TABLE]</text>
<polygon fill="none" stroke="black" points="57.71,-135.6 57.71,-166.4 272.19,-166.4 272.19,-135.6 57.71,-135.6"/>
<text text-anchor="start" x="64.71" y="-147.8" font-family="Arial" font-size="14.00">id </text>
<text text-anchor="start" x="79.49" y="-147.8" font-family="Arial" font-size="14.00" fill="#666666">[bigint(20) unsigned]</text>
<polygon fill="none" stroke="black" points="57.71,-104.8 57.71,-135.6 272.19,-135.6 272.19,-104.8 57.71,-104.8"/>
<text text-anchor="start" x="64.71" y="-117" font-family="Arial" font-size="14.00">type_name </text>
<text text-anchor="start" x="137.86" y="-117" font-family="Arial" font-size="14.00" fill="#666666">[varchar(255)]</text>
<polygon fill="none" stroke="black" points="57.71,-74 57.71,-104.8 272.19,-104.8 272.19,-74 57.71,-74"/>
<text text-anchor="start" x="64.71" y="-86.2" font-family="Arial" font-size="14.00">created_at </text>
<text text-anchor="start" x="134.75" y="-86.2" font-family="Arial" font-size="14.00" fill="#666666">[datetime]</text>
<polygon fill="none" stroke="black" points="57.71,-43.2 57.71,-74 272.19,-74 272.19,-43.2 57.71,-43.2"/>
<text text-anchor="start" x="64.71" y="-55.4" font-family="Arial" font-size="14.00">updated_at </text>
<text text-anchor="start" x="138.66" y="-55.4" font-family="Arial" font-size="14.00" fill="#666666">[datetime]</text>
</g>
<!-- monthly_costs&#45;&gt;cost_types -->
<g id="edge1" class="edge">
<title>monthly_costs:cost_type_id&#45;&gt;cost_types:id</title>
<path fill="none" stroke="black" d="M297.82,-491.61C362.44,-462.42 345.86,-151 273.19,-151"/>
<polygon fill="black" stroke="black" points="297.79,-491.62 287.07,-489.33 292.58,-492.74 288.35,-493.66 288.35,-493.66 288.35,-493.66 292.58,-492.74 288.97,-498.13 297.79,-491.62"/>
<text text-anchor="start" x="294.69" y="-503.8" font-family="Arial" font-size="10.00">FOREIGN KEY (cost_type_id) REFERENCES cost_types (id)</text>
</g>
<!-- schema_migrations -->
<g id="node2" class="node">
<title>schema_migrations</title>
<polygon fill="#efefef" stroke="none" points="390.72,-447.6 390.72,-483.2 669.17,-483.2 669.17,-447.6 390.72,-447.6"/>
<polygon fill="none" stroke="black" points="390.72,-447.6 390.72,-483.2 669.17,-483.2 669.17,-447.6 390.72,-447.6"/>
<text text-anchor="start" x="397.72" y="-461" font-family="Arial Bold" font-size="18.00">schema_migrations</text>
<text text-anchor="start" x="537.68" y="-461" font-family="Arial" font-size="14.00">    </text>
<text text-anchor="start" x="568.8" y="-461" font-family="Arial" font-size="14.00" fill="#666666">[BASE TABLE]</text>
<polygon fill="none" stroke="black" points="390.72,-416.8 390.72,-447.6 669.17,-447.6 669.17,-416.8 390.72,-416.8"/>
<text text-anchor="start" x="397.72" y="-429" font-family="Arial" font-size="14.00">version </text>
<text text-anchor="start" x="446.74" y="-429" font-family="Arial" font-size="14.00" fill="#666666">[bigint(20)]</text>
<polygon fill="none" stroke="black" points="390.72,-386 390.72,-416.8 669.17,-416.8 669.17,-386 390.72,-386"/>
<text text-anchor="start" x="397.72" y="-398.2" font-family="Arial" font-size="14.00">dirty </text>
<text text-anchor="start" x="428.06" y="-398.2" font-family="Arial" font-size="14.00" fill="#666666">[tinyint(1)]</text>
</g>
</g>
</svg>
